<?xml version="1.0"?>

<svg xmlns="http://www.w3.org/2000/svg" viewBox="0 0 120 120" width="120" height="120">
  
  <g>
    
    <path d="M60 78 L14 87 L14 66 L60 58 Z" fill="#185FA5"></path>
    
    <path d="M60 78 L106 87 L106 66 L60 58 Z" fill="#185FA5"></path>
    
    <line x1="22" y1="73" x2="58" y2="65" stroke="#85B7EB" stroke-width="1.8" stroke-linecap="round"></line>
    <line x1="22" y1="78" x2="58" y2="70" stroke="#85B7EB" stroke-width="1.8" stroke-linecap="round"></line>
    <line x1="22" y1="83" x2="58" y2="75" stroke="#85B7EB" stroke-width="1.8" stroke-linecap="round"></line>
    
    <line x1="98" y1="73" x2="62" y2="65" stroke="#85B7EB" stroke-width="1.8" stroke-linecap="round"></line>
    <line x1="98" y1="78" x2="62" y2="70" stroke="#85B7EB" stroke-width="1.8" stroke-linecap="round"></line>
    <line x1="98" y1="83" x2="62" y2="75" stroke="#85B7EB" stroke-width="1.8" stroke-linecap="round"></line>
    
    <line x1="60" y1="58" x2="60" y2="88" stroke="#042C53" stroke-width="2" opacity="0.4"></line>
  </g>

  
  <ellipse cx="60" cy="46" rx="42" ry="22" fill="white"></ellipse>

  
  <circle cx="60" cy="46" r="18" fill="#378ADD"></circle>

  
  <circle cx="60" cy="46" r="12" fill="#185FA5"></circle>
  <circle cx="60" cy="46" r="7" fill="#042C53"></circle>

  
  <circle cx="60" cy="46" r="3.5" fill="#185FA5"></circle>

  
  <circle cx="66" cy="40" r="4" fill="white" opacity="0.85"></circle>
  <circle cx="64" cy="38" r="1.5" fill="white" opacity="0.5"></circle>

  
  <path d="M18 46 Q36 18 60 20 Q84 18 102 46" fill="none" stroke="#042C53" stroke-width="3.5" stroke-linecap="round"></path>
  
  <path d="M18 46 Q36 68 60 66 Q84 68 102 46" fill="none" stroke="#185FA5" stroke-width="2.5" stroke-linecap="round"></path>
</svg>