<?xml version="1.0"?>

<svg xmlns="http://www.w3.org/2000/svg" viewBox="0 0 240 280" width="240" height="280">

  
  <g transform="translate(60, 12)">
    
    <path d="M60 78 L14 87 L14 66 L60 58 Z" fill="#185FA5"></path>
    <path d="M60 78 L106 87 L106 66 L60 58 Z" fill="#185FA5"></path>
    <line x1="22" y1="73" x2="58" y2="65" stroke="#85B7EB" stroke-width="1.8" stroke-linecap="round"></line>
    <line x1="22" y1="78" x2="58" y2="70" stroke="#85B7EB" stroke-width="1.8" stroke-linecap="round"></line>
    <line x1="22" y1="83" x2="58" y2="75" stroke="#85B7EB" stroke-width="1.8" stroke-linecap="round"></line>
    <line x1="98" y1="73" x2="62" y2="65" stroke="#85B7EB" stroke-width="1.8" stroke-linecap="round"></line>
    <line x1="98" y1="78" x2="62" y2="70" stroke="#85B7EB" stroke-width="1.8" stroke-linecap="round"></line>
    <line x1="98" y1="83" x2="62" y2="75" stroke="#85B7EB" stroke-width="1.8" stroke-linecap="round"></line>
    
    <ellipse cx="60" cy="46" rx="42" ry="22" fill="white" stroke="#E0EDF8" stroke-width="1"></ellipse>
    <circle cx="60" cy="46" r="18" fill="#378ADD"></circle>
    <circle cx="60" cy="46" r="12" fill="#185FA5"></circle>
    <circle cx="60" cy="46" r="7" fill="#042C53"></circle>
    <circle cx="60" cy="46" r="3.5" fill="#185FA5"></circle>
    <circle cx="66" cy="40" r="4" fill="white" opacity="0.85"></circle>
    <path d="M18 46 Q36 18 60 20 Q84 18 102 46" fill="none" stroke="#042C53" stroke-width="3.5" stroke-linecap="round"></path>
    <path d="M18 46 Q36 68 60 66 Q84 68 102 46" fill="none" stroke="#185FA5" stroke-width="2.5" stroke-linecap="round"></path>
  </g>

  
  <text x="120" y="182" text-anchor="middle" font-family="Inter, Helvetica Neue, Arial, sans-serif" font-weight="800" font-size="56" fill="#042C53" letter-spacing="3">IRIS</text>

  
  <text x="120" y="208" text-anchor="middle" font-family="Inter, Helvetica Neue, Arial, sans-serif" font-weight="400" font-size="16" fill="#185FA5" letter-spacing="7">EDUCAÇÃO</text>

  
  <line x1="48" y1="217" x2="192" y2="217" stroke="#378ADD" stroke-width="1.5"></line>

  
  <text x="120" y="235" text-anchor="middle" font-family="Inter, Helvetica Neue, Arial, sans-serif" font-size="9" fill="#2C2C2A" opacity="0.6" letter-spacing="0.2">Visão completa da trajetória de cada aluno</text>
</svg>